<svg xmlns="http://www.w3.org/2000/svg" xml:space="preserve" width="50" height="50" style="enable-background:new 0 0 488.003 488.003" viewBox="0 0 488.003 488.003"><g class="deployment"><path fill="#cb1ac5" d="M256.003 323.999h-144v-48a8 8 0 0 0-13.656-5.656l-96 96a8 8 0 0 0-.224 11.088l96 104a8 8 0 0 0 5.88 2.568 8 8 0 0 0 8-8v-48h144a8 8 0 0 0 8-8v-88a8 8 0 0 0-8-8zm-8 88h-144a8 8 0 0 0-8 8v35.536l-76.904-83.32 76.904-76.904v36.688a8 8 0 0 0 8 8h144v72zM478.397 111.198a7.952 7.952 0 0 0-1.355-1.407l-128-104a8 8 0 0 0-13.04 6.208v48h-112a8 8 0 0 0-8 8v88a8 8 0 0 0 8 8h112v48a8 8 0 0 0 12.8 6.4l128-96a8 8 0 0 0 1.595-11.201zm-126.394 84.801v-40a8 8 0 0 0-8-8h-112v-72h112a8 8 0 0 0 8-8v-39.2l107 86.952-107 80.248zM136.003 59.999h64v16h-64zM104.003 59.999h16v16h-16zM32.003 107.999h56v16h-56zM168.003 147.999h32v16h-32zM88.003 147.999h48v16h-48zM56.003 147.999h16v16h-16zM24.003 147.999h16v16h-16zM128.003 107.999h16v16h-16zM160.003 107.999h40v16h-40zM.003 107.999h16v16h-16zM280.003 323.999h80v16h-80zM376.003 323.999h16v16h-16zM392.003 371.999h56v16h-56zM280.003 411.999h16v16h-16zM368.003 411.999h48v16h-48zM432.003 411.999h16v16h-16zM472.003 411.999h16v16h-16zM344.003 371.999h16v16h-16zM280.003 371.999h48v16h-48zM464.003 371.999h16v16h-16zM312.003 411.999h16v16h-16zM432.003 323.999h48v16h-48zM8.003 59.999h48v16h-48z"/></g></svg>