<svg xmlns="http://www.w3.org/2000/svg" xml:space="preserve" width="50" height="50" fill="#dc2d3c" style="enable-background:new 0 0 480 480" viewBox="0 0 480 480"><path d="M346.349 285.891a52.468 52.468 0 0 0-9.837-7.688l-.016-.032c-20.485-12.399-46.796-9.156-63.656 7.848l-1.2 1.208-1.16-1.176c-20.237-20.377-53.161-20.491-73.539-.254a51.986 51.986 0 0 0-8.061 10.334c-12.301 20.616-9.039 46.952 7.92 63.944l69.184 69.6a8 8 0 0 0 11.314.03l.03-.03 69.224-69.6c20.429-20.542 20.339-53.755-.203-74.184zm-5.797 56.06a36.504 36.504 0 0 1-5.352 6.844l-63.552 63.888-63.52-63.888c-11.788-11.846-14.029-30.184-5.44-44.52 10.184-17.076 32.282-22.664 49.358-12.481a36.026 36.026 0 0 1 7.09 5.537l6.832 6.88a8 8 0 0 0 11.314.03l.03-.03 6.872-6.904c11.666-11.773 29.88-14.019 44.056-5.432 17.228 10.428 22.741 32.848 12.312 50.076z"/><path d="M472 199.995a103.04 103.04 0 0 0-84.856 44 239.308 239.308 0 0 0-115.144-28 234.605 234.605 0 0 0-125.832 34.472l-4.928-17.24a136.318 136.318 0 0 1 4.512-88.064l3.664-9.168H232a7.998 7.998 0 0 0 7.432-5.024l32-80a8 8 0 0 0-4.696-10.496l-88-32a7.999 7.999 0 0 0-8.12 1.6l-88 80a8.004 8.004 0 0 0-2.256 3.544l-75.608 243.2A87.362 87.362 0 0 0 0 365.275v58.72a8 8 0 0 0 5.472 7.592A319.197 319.197 0 0 0 106.6 447.995h57.888a241.32 241.32 0 0 0 107.512 24c69.768 0 133.36-27.4 164.392-70.312A103.02 103.02 0 0 0 472 407.995a8 8 0 0 0 8-8v-192a8 8 0 0 0-8-8zm-8 191.64a87.418 87.418 0 0 1-27.376-7.104 8 8 0 0 0-9.96 3.016c-26.56 41.584-87.272 68.448-154.664 68.448-35.33.422-70.26-7.5-101.952-23.12a8.005 8.005 0 0 0-3.648-.88h-59.8A303.146 303.146 0 0 1 16 418.171v-52.896a71.662 71.662 0 0 1 4-23.464l75.032-241.36 82.776-75.288 44.856 16.312-19.936 46.52H184v16h24a8 8 0 0 0 7.352-4.848l22.4-52.192 15.784 5.736-26.952 67.304H144a7.998 7.998 0 0 0-7.432 5.024l-5.68 14.2a152.39 152.39 0 0 0-5.032 98.4l8 27.88c-1.6 1.96-3.112 4-4.52 6.12a80.061 80.061 0 0 0-12 28.864l-5.176 25.912a8 8 0 0 0 7.84 9.6 8 8 0 0 0 7.832-6.4l5.192-25.936a64.523 64.523 0 0 1 27.472-41.016l11.936-7.96a7.783 7.783 0 0 0 1.304-1.312A228.5 228.5 0 0 1 272 231.995a219.572 219.572 0 0 1 113.504 29.6 8 8 0 0 0 11.001-2.64l.039-.064A87.312 87.312 0 0 1 464 216.347v175.288z"/></svg>