<svg xmlns="http://www.w3.org/2000/svg" xml:space="preserve" width="50" height="50" style="enable-background:new 0 0 480 480" viewBox="0 0 480 480"><path fill="#a241bb" d="M456 88H331.784A111.89 111.89 0 0 0 240 40V24c0-13.255-10.745-24-24-24H24C10.745 0 0 10.745 0 24v96c0 13.255 10.745 24 24 24h17.6l24.264 29.128a8 8 0 0 0 12.296 0L102.4 144h25.992c-.192 2.656-.408 5.296-.408 8v16a7.394 7.394 0 0 0 8.976 7.848 127.296 127.296 0 0 0 20.712 55.952 32 32 0 0 1-28.656-23.8H136v-16h-16a8 8 0 0 0-8 8c.031 26.497 21.503 47.969 48 48h10.4a127.096 127.096 0 0 0 11.472 10.968c.68.568 1.408 1.056 2.104 1.6v29.672l-66.528 22.176a8.001 8.001 0 0 0-5.424 6.752l-16 152A8.001 8.001 0 0 0 104 480h272a8 8 0 0 0 7.952-8.8l-16-152a8.001 8.001 0 0 0-5.424-6.752L296 290.24v-29.672c.696-.544 1.416-1.032 2.104-1.6A127.197 127.197 0 0 0 337.8 200h7.8l24.264 29.128a8 8 0 0 0 12.296 0L406.4 200H456c13.255 0 24-10.745 24-24v-64c0-13.255-10.745-24-24-24zm-325.344 40H98.664a8.003 8.003 0 0 0-6.152 2.872L72 155.504l-20.512-24.632A8.003 8.003 0 0 0 45.336 128H24a8 8 0 0 1-8-8V24a8 8 0 0 1 8-8h192a8 8 0 0 1 8 8v17.28c-46.107 6.713-83.262 41.231-93.344 86.72zM184 464h-71.12l14.536-138.04L184 307.104V464zm16 0V357.768l28.352-9.448-20.072 73.6a7.998 7.998 0 0 0 .56 5.68l18.216 36.4H200zm0-123.104v-15.952l19.144 9.6L200 340.896zm24.52 82.264L240 366.4l15.464 56.76L240 454.112l-15.48-30.952zM280 464h-27.056l18.208-36.424a7.998 7.998 0 0 0 .56-5.68l-20.072-73.6 28.36 9.472V464zm0-123.104-19.144-6.4L280 324.944v15.952zM280 296v11.056l-40 20-40-20V270.64a90.098 90.098 0 0 0 80 0V296zm72.584 29.96L367.12 464H296V307.104l56.584 18.856zm-64.736-79.288c-27.08 22.557-66.245 23.111-93.952 1.328H232v-16h-54.28a111.263 111.263 0 0 1-25.352-65.44 328.153 328.153 0 0 1 104.496-44.752c4.79 26.705 28.005 46.154 55.136 46.192h15.616a111.09 111.09 0 0 1-39.768 78.672zM312 152c-22.08-.026-39.974-17.92-40-40a8 8 0 0 0-9.736-7.816l-4.8 1.072A344.15 344.15 0 0 0 144 152.856V152c0-53.019 42.981-96 96-96s96 42.981 96 96h-24zm152 24a8 8 0 0 1-8 8h-53.336a8.003 8.003 0 0 0-6.152 2.872L376 211.504l-20.512-24.624a8.002 8.002 0 0 0-6.152-2.88h-7.592a127.804 127.804 0 0 0 1.872-16H344a8 8 0 0 0 8-8v-8a111.128 111.128 0 0 0-10.96-48H456a8 8 0 0 1 8 8v64z" class="support"/></svg>