<svg xmlns="http://www.w3.org/2000/svg" xml:space="preserve" width="50" height="50" style="enable-background:new 0 0 480.089 480.089" viewBox="0 0 480.089 480.089"><g fill="#0caec1"><path d="M471.1 4.224A8 8 0 0 0 464.044 0h-112a8 8 0 0 0-6.656 3.56L240.044 161.6 134.7 3.56A8 8 0 0 0 128.044 0h-112a8 8 0 0 0-6.656 12.44L120.044 178.4V208a8 8 0 0 0 8 8h88v10.336c-69.439 13.255-114.985 80.291-101.73 149.73s80.291 114.985 149.73 101.73c69.439-13.255 114.985-80.291 101.73-149.73-9.842-51.562-50.168-91.887-101.73-101.73V216h88a8 8 0 0 0 8-8v-29.6L470.7 12.44a8 8 0 0 0 .4-8.216zM110.964 136h49.08v-16h-59.72L30.988 16h92.776L161.1 72h-57.056v16h67.72l53.336 80h-92.8l-21.336-32zm241.08 216c0 61.856-50.144 112-112 112s-112-50.144-112-112 50.144-112 112-112c61.829.066 111.934 50.172 112 112zm-120-127.592V216h16v8.408c-2.656-.168-5.296-.408-8-.408-2.704 0-5.344.24-8 .408zm112-24.408h-208v-16h208v16zm35.72-80h-59.72v16H369.1l-21.336 32h-92.8L308.3 88h67.744V72h-57.056l37.336-56h92.8l-69.36 104z"/><path d="M136.044 352c0 57.438 46.562 104 104 104s104-46.562 104-104-46.562-104-104-104c-57.41.066-103.934 46.59-104 104zm192 0c0 48.601-39.399 88-88 88s-88-39.399-88-88 39.399-88 88-88c48.577.057 87.943 39.423 88 88zM64.044 224h-16c0 17.673-14.327 32-32 32v16c17.673 0 32 14.327 32 32h16c0-17.673 14.327-32 32-32v-16c-17.673 0-32-14.327-32-32zm-8 53.496-.072-.096a48.477 48.477 0 0 0-13.328-13.328l-.096-.072a48.39 48.39 0 0 0 13.496-13.496A48.39 48.39 0 0 0 69.54 264a48.39 48.39 0 0 0-13.496 13.496zM432.044 352h-16c0 17.673-14.327 32-32 32v16c17.673 0 32 14.327 32 32h16c0-17.673 14.327-32 32-32v-16c-17.673 0-32-14.327-32-32zm-8 53.496-.072-.096a48.477 48.477 0 0 0-13.328-13.328l-.096-.072a48.39 48.39 0 0 0 13.496-13.496A48.39 48.39 0 0 0 437.54 392a48.39 48.39 0 0 0-13.496 13.496z"/><path d="M232.044 304h-16v16h16v88h16V296h-16z"/></g></svg>