<svg xmlns="http://www.w3.org/2000/svg" xml:space="preserve" width="50" height="50" fill="#ff9800" style="enable-background:new 0 0 512 512" viewBox="0 0 512 512"><path d="M511.982 97.701c-.51-43.455-22.748-67.388-62.619-67.388-15.432 0-30.302 3.592-40.023 6.589.968-17.762.983-28.726.983-29.271l.001-7.604H101.683V7.63c0 .26.026 11.397 1.005 29.281-9.72-2.999-24.604-6.598-40.051-6.598-39.87 0-62.109 23.932-62.619 67.388-.502 42.75 9.248 80.804 28.977 113.107 19.37 31.715 44.128 50.826 61.487 61.271 27.803 16.732 55.59 20.244 74.006 20.244 4.54 0 8.914-.214 13.005-.636.271-.028.522-.06.787-.089 8.904 9.589 18.503 17.27 28.76 22.978 7.561 4.207 12.82 11.544 14.622 19.977-10.195 3.173-17.618 12.698-17.618 23.923 0 11.477 7.763 21.17 18.31 24.12v31.91h-41.142v33.301h-40.6v64.167h230.781v-64.167h-40.6v-33.301h-41.142v-31.91c10.548-2.951 18.311-12.643 18.311-24.12 0-11.226-7.423-20.75-17.618-23.923 1.802-8.433 7.06-15.769 14.622-19.977 10.232-5.693 19.897-13.416 28.779-22.974 3.147.349 7.866.72 13.766.72h.004c18.414 0 46.2-3.514 74.001-20.244 17.358-10.446 42.117-29.556 61.487-61.271 19.732-32.302 29.481-70.357 28.979-113.106zm-116.99-82.468a649.644 649.644 0 0 1-.342 10.369H117.387a680.907 680.907 0 0 1-.361-10.369h277.966zm10.342 69.813c10.302-3.429 23.654-6.887 35.615-6.887 10.029 0 17.25 2.45 21.463 7.282 4.842 5.554 6.403 14.884 4.637 27.734-7.353 53.526-30.562 95.308-65.354 117.647-12.119 7.782-25.171 10.997-36.109 12.139 23.137-48.631 34.335-109.647 39.748-157.915zm-290.839 52.963c7.479 40.115 17.805 74.563 30.693 102.386.399.864.805 1.715 1.209 2.566-10.934-1.145-23.978-4.359-36.092-12.137-34.791-22.34-58.001-64.121-65.354-117.647-1.765-12.851-.205-22.182 4.638-27.734 4.213-4.832 11.435-7.281 21.463-7.281 11.971 0 25.335 3.463 35.641 6.894 1.841 16.462 4.358 34.481 7.802 52.953zm49.993 139.108c-16.488 0-41.353-3.135-66.164-18.066-25.375-15.27-84.27-61.544-83.1-161.171.414-35.233 15.923-52.36 47.413-52.36 16.841 0 33.474 5.077 41.077 7.755.379 5.101.804 10.217 1.274 15.312-10.335-3.036-22.512-5.634-33.936-5.634-14.618 0-25.695 4.203-32.925 12.493-7.859 9.013-10.632 22.403-8.242 39.798 4.094 29.801 12.65 56.141 25.431 78.287 12.201 21.142 27.938 37.994 46.772 50.086 18.396 11.813 38.293 14.792 52.486 15.077.048.084.097.164.145.247a213.286 213.286 0 0 0 3.103 5.258c.757 1.244 1.52 2.476 2.291 3.683.29.454.584.897.876 1.347a187.847 187.847 0 0 0 3.134 4.669c.509.733 1.019 1.462 1.533 2.181.241.338.478.689.719 1.023-.612.01-1.241.015-1.887.015zm191.7 185.898v33.753H155.82v-33.753h200.368zm-66.535-33.301h25.934v18.094H196.42v-18.094h93.233zm-52.092-15.207v-30.982h36.885v30.982h-36.885zm55.196-56.031c0 5.427-4.416 9.842-9.842 9.842h-53.822c-5.427 0-9.842-4.415-9.842-9.842s4.415-9.842 9.842-9.842h53.822c5.427 0 9.842 4.415 9.842 9.842zm38.034-86.924-.252.327c-.748.968-1.502 1.912-2.26 2.843-.186.227-.369.458-.556.684a132.356 132.356 0 0 1-2.517 2.968c-.041.046-.079.094-.12.14-8.479 9.673-17.735 17.334-27.512 22.774-12.051 6.704-20.245 18.611-22.499 32.139h-38.142c-2.255-13.529-10.449-25.435-22.5-32.139-9.436-5.249-17.958-12.266-25.657-20.651l-1.86-2.122c-7.56-8.622-14.686-19.068-21.179-31.045l-1.989-3.671c-32.697-63.177-42.587-154.488-45.569-202.991h275.705c-.127 2.11-.266 4.289-.42 6.552l-.022.318a817.34 817.34 0 0 1-.539 7.372l-.016.217a841.975 841.975 0 0 1-2.149 23.365l-.497 4.678c-5.525 49.528-17.194 112.625-41.801 160.153l-2.173 4.006c-4.835 8.916-10.021 16.982-15.476 24.083zm82.886-12.501c-24.813 14.932-49.673 18.066-66.16 18.066h-.004c-.647 0-1.276-.005-1.889-.015l.03-.043a182.256 182.256 0 0 0 2.916-4.145c.117-.171.232-.346.349-.517.809-1.192 1.606-2.4 2.394-3.62a201.45 201.45 0 0 0 3.188-5.091c.133-.219.262-.444.394-.665a213.517 213.517 0 0 0 2.054-3.507c.158-.276.321-.54.48-.818 14.193-.285 34.09-3.264 52.486-15.077 18.834-12.094 34.571-28.946 46.772-50.086 12.78-22.146 21.336-48.486 25.431-78.287 2.388-17.396-.384-30.786-8.242-39.798-7.229-8.291-18.307-12.494-32.925-12.494-11.423 0-23.602 2.596-33.936 5.633.479-5.195.89-10.178 1.242-14.914l.031-.396c7.605-2.679 24.237-7.755 41.077-7.755 31.49 0 46.999 17.127 47.414 52.358 1.166 99.627-57.727 145.9-83.102 161.171z"/><path d="m192.356 246.237-12.7 8.367c4.336 6.583 8.996 12.564 13.851 17.776l11.128-10.366c-4.277-4.591-8.408-9.9-12.279-15.777zM159.716 161.922l-14.826 3.382c7.292 31.965 17.027 58.799 28.933 79.756l13.222-7.512c-11.172-19.665-20.367-45.109-27.329-75.626zM443.666 333.509l-.011-15.207-12.837.008-.009-12.837-15.207.01.009 12.838-12.837.009.01 15.207 12.837-.009.009 12.836 15.207-.01-.009-12.837zM112.785 412.475l-.016-15.207-10.772.011-.011-10.773-15.207.016.011 10.772-10.774.011.017 15.207 10.772-.011.011 10.774 15.207-.016-.011-10.773zM48.845 288.161H63.19v15.207H48.845zM141.039 333.153h14.345v15.207h-14.345zM372.254 378.905h14.345v15.207h-14.345z"/></svg>