<svg xmlns="http://www.w3.org/2000/svg" xml:space="preserve" width="50" height="50" fill="#1d13ed" style="enable-background:new 0 0 480 480" viewBox="0 0 480 480"><path d="M458.504 401.912A31.837 31.837 0 0 0 464 384c0-17.648-14.352-32-32-32s-32 14.352-32 32c0 6.632 2.032 12.8 5.496 17.912a31.935 31.935 0 0 0-19.584 19.584c-2.264-1.536-4.784-2.664-7.416-3.584A31.782 31.782 0 0 0 384 400c0-17.648-14.352-32-32-32s-32 14.352-32 32c0 6.632 2.032 12.8 5.496 17.912-2.624.92-5.152 2.048-7.416 3.584a31.935 31.935 0 0 0-19.584-19.584A31.782 31.782 0 0 0 304 384c0-17.648-14.352-32-32-32s-32 14.352-32 32c0 6.632 2.032 12.8 5.496 17.912C233.024 406.288 224 418.048 224 432v24c0 4.424 3.576 8 8 8h72v8c0 4.424 3.576 8 8 8h80c4.424 0 8-3.576 8-8v-8h72c4.424 0 8-3.576 8-8v-24c0-13.952-9.024-25.712-21.496-30.088zM272 368c8.824 0 16 7.176 16 16s-7.176 16-16 16-16-7.176-16-16 7.176-16 16-16zm32 80h-64v-16c0-8.824 7.176-16 16-16h32c8.824 0 16 7.176 16 16v16zm48-64c8.824 0 16 7.176 16 16s-7.176 16-16 16-16-7.176-16-16 7.176-16 16-16zm32 72v8h-64v-16c0-8.824 7.176-16 16-16h32c8.824 0 16 7.176 16 16v8zm48-88c8.824 0 16 7.176 16 16s-7.176 16-16 16-16-7.176-16-16 7.176-16 16-16zm32 80h-64v-16c0-8.824 7.176-16 16-16h32c8.824 0 16 7.176 16 16v16zM245.656 258.344l-40-40A7.965 7.965 0 0 0 200 216h-40v-40c0-4.424-3.576-8-8-8H8c-4.424 0-8 3.576-8 8v160c0 4.424 3.576 8 8 8h25.136c3.576 13.768 15.992 24 30.864 24s27.288-10.232 30.864-24h66.272c3.576 13.768 15.992 24 30.864 24s27.288-10.232 30.864-24H240c4.424 0 8-3.576 8-8v-72c0-2.128-.84-4.16-2.344-5.656zM16 184h128v88H16v-88zm48 168c-8.824 0-16-7.176-16-16s7.176-16 16-16 16 7.176 16 16-7.176 16-16 16zm128 0c-8.824 0-16-7.176-16-16s7.176-16 16-16 16 7.176 16 16-7.176 16-16 16zm40-24h-9.016c-.28-1.088-.712-2.112-1.104-3.16-.192-.512-.32-1.04-.536-1.544a32.021 32.021 0 0 0-2.728-5.024c-.232-.352-.528-.656-.784-1-.872-1.208-1.8-2.36-2.832-3.432-.472-.488-.984-.912-1.48-1.368-.92-.84-1.856-1.64-2.872-2.368-.592-.432-1.2-.824-1.824-1.208a32.558 32.558 0 0 0-3.208-1.744c-.656-.312-1.304-.624-1.992-.896-1.224-.48-2.496-.848-3.784-1.176-.624-.16-1.216-.36-1.848-.48-1.944-.368-3.936-.6-5.992-.6s-4.048.232-6 .608c-.632.12-1.232.328-1.848.48-1.296.328-2.56.696-3.784 1.176-.68.272-1.328.584-1.992.896a31.813 31.813 0 0 0-3.208 1.744 31.28 31.28 0 0 0-1.824 1.208 32.461 32.461 0 0 0-2.872 2.368c-.496.456-1.008.88-1.48 1.368-1.032 1.072-1.96 2.224-2.832 3.432-.248.344-.544.648-.784 1a31.723 31.723 0 0 0-2.728 5.024c-.216.496-.344 1.032-.536 1.544-.392 1.04-.824 2.064-1.104 3.16H94.976c-.28-1.088-.712-2.112-1.104-3.16-.192-.512-.32-1.04-.536-1.544a32.021 32.021 0 0 0-2.728-5.024c-.232-.352-.528-.656-.784-1-.872-1.208-1.8-2.36-2.832-3.432-.472-.488-.984-.912-1.48-1.368-.92-.84-1.856-1.64-2.872-2.368-.592-.432-1.2-.824-1.824-1.208a32.558 32.558 0 0 0-3.208-1.744c-.656-.312-1.304-.624-1.992-.896-1.224-.48-2.496-.848-3.784-1.176-.624-.16-1.216-.36-1.848-.48-1.936-.376-3.928-.608-5.984-.608s-4.048.232-6 .608c-.632.12-1.232.328-1.848.48-1.296.328-2.56.696-3.784 1.176-.68.272-1.328.584-1.992.896a31.813 31.813 0 0 0-3.208 1.744 31.28 31.28 0 0 0-1.824 1.208 32.461 32.461 0 0 0-2.872 2.368c-.496.456-1.008.88-1.48 1.368-1.032 1.072-1.96 2.224-2.832 3.432-.248.344-.544.648-.784 1a31.723 31.723 0 0 0-2.728 5.024c-.216.496-.344 1.032-.536 1.544-.384 1.04-.816 2.064-1.096 3.152H16v-40h136c4.424 0 8-3.576 8-8v-48h36.688L232 267.312V328zM472 0h-48c-4.424 0-8 3.576-8 8v91.568l-48 30V104a8.006 8.006 0 0 0-12.248-6.784L304 129.568V104a8.006 8.006 0 0 0-12.248-6.784l-64 40A8.018 8.018 0 0 0 224 144v64c0 4.424 3.576 8 8 8h240c4.424 0 8-3.576 8-8V8c0-4.424-3.576-8-8-8zM288 144v56h-48v-51.56l48-30V144zm64 0v56h-48v-51.56l48-30V144zm64-16v72h-48v-51.56l48-30V128zm48 72h-32v-64h32v64zm0-80h-32V16h32v104z"/><path d="M320 160h16v24h-16zM384 160h16v24h-16zM256 160h16v24h-16zM429.56 262.608a184.1 184.1 0 0 1-3.032 15.048l15.544 3.8a209.206 209.206 0 0 0 3.288-16.304l-15.8-2.544zM432 232c0 5.152-.2 10.312-.608 15.344l15.952 1.28c.44-5.456.656-11.056.656-16.624h-16zM410.344 320.672a185.169 185.169 0 0 1-7.64 13.32l13.544 8.512a200.702 200.702 0 0 0 8.28-14.44l-14.184-7.392zM422.296 292.416a195.271 195.271 0 0 1-5.416 14.368l14.736 6.232a205.76 205.76 0 0 0 5.864-15.568l-15.184-5.032zM103.568 82.992a214.88 214.88 0 0 0-12.096 11.4l11.424 11.2a194.021 194.021 0 0 1 11.184-10.536l-10.512-12.064zM306.296 42.792 301.2 57.96a186.459 186.459 0 0 1 14.336 5.472l6.312-14.704a211.044 211.044 0 0 0-15.552-5.936zM130.32 63.232a211.591 211.591 0 0 0-13.776 9.344l9.512 12.872a189.548 189.548 0 0 1 12.696-8.624l-8.432-13.592zM61.104 133.84a206.925 206.925 0 0 0-7.936 14.632l14.36 7.064a194.927 194.927 0 0 1 7.312-13.496l-13.736-8.2zM80.312 106.72a208.807 208.807 0 0 0-10.152 13.176l13.064 9.248a191.86 191.86 0 0 1 9.368-12.176l-12.28-10.248zM240.904 32l-.064 16a194.62 194.62 0 0 1 15.344.672l1.344-15.936A207.552 207.552 0 0 0 240.904 32zM274.032 34.776l-2.608 15.784c5.08.84 10.136 1.88 15.032 3.112l3.872-15.528a204.81 204.81 0 0 0-16.296-3.368zM336.864 55.888l-7.472 14.16c4.488 2.36 8.96 4.952 13.296 7.704l8.56-13.512a207.729 207.729 0 0 0-14.384-8.352zM224.288 32.576a218.871 218.871 0 0 0-16.512 1.896l2.456 15.816a195.713 195.713 0 0 1 15.264-1.76l-1.208-15.952zM159.84 48.008a210.89 210.89 0 0 0-15.072 7.032l7.328 14.216a193.684 193.684 0 0 1 13.912-6.48l-6.168-14.768zM191.456 37.696a205.087 205.087 0 0 0-16.024 4.52l4.968 15.2a191.302 191.302 0 0 1 14.76-4.168l-3.704-15.552zM166.96 419.768l-5.64 14.968a200.809 200.809 0 0 0 15.808 5.232l4.408-15.376a197.886 197.886 0 0 1-14.576-4.824zM139.224 406.672l-7.968 13.872a211.867 211.867 0 0 0 14.752 7.696l6.832-14.472a191.24 191.24 0 0 1-13.616-7.096zM196.456 428.224l-3.16 15.688a210.561 210.561 0 0 0 16.424 2.64l1.904-15.888c-5.04-.6-10.136-1.424-15.168-2.44zM93.864 370.56l-11.736 10.872c2.96 3.2 6.04 6.312 9.2 9.328l11.032-11.592a195.951 195.951 0 0 1-8.496-8.608zM113.904 389.304l-10.064 12.44a208.697 208.697 0 0 0 13.328 9.944l9.048-13.184a201.68 201.68 0 0 1-12.312-9.2z"/></svg>