<svg xmlns="http://www.w3.org/2000/svg" xml:space="preserve" width="50" height="50" fill="#4caf50" style="enable-background:new 0 0 480.008 480.008" viewBox="0 0 480.008 480.008"><path d="M431.24 216.155a40 40 0 0 0-31.24-31.24v-88.8c0-13.255-10.745-24-24-24s-24 10.745-24 24v2.848l-169.728 77.152H56c-30.927.21-55.828 25.452-55.618 56.38C.57 260.041 20.763 283.36 48 287.483v120.632a8 8 0 0 0 8 8h64a8 8 0 0 0 8-8v-64.152c22.44-1.22 40.008-19.775 40-42.248v-13.6h14.6l169.4 61.6v2.4c0 13.255 10.745 24 24 24s24-10.745 24-24v-88.8c21.65-4.396 35.636-25.51 31.24-47.16zM112 400.115H64v-16h16v-16H64v-16h16v-16H64v-16h16v-16H64v-16h48v112zm40-98.4c.045 13.638-10.407 25.017-24 26.128v-39.728h24v13.6zm24-29.6H56c-22.091-.005-39.996-17.917-39.991-40.009a40 40 0 0 1 11.711-28.271A39.734 39.734 0 0 1 56 192.115h120v80zm176 60.576-160-58.176v-85.248l160-72.728v216.152zm32 19.424a8 8 0 0 1-16 0v-256a8 8 0 0 1 16 0v256zm30.68-120.152a23.857 23.857 0 0 1-14.68 14.68v-45.056c12.442 4.334 19.014 17.934 14.68 30.376z"/><path fill="#FFF" d="M88 208.115c-13.255 0-24 10.745-24 24s10.745 24 24 24 24-10.745 24-24-10.745-24-24-24zm0 32a8 8 0 1 1 0-16 8 8 0 0 1 0 16z"/><circle cx="224" cy="376.115" r="16"/><path d="m478.657 51.677-.001-.002a7.999 7.999 0 0 0-11.094-2.217l-.002.001-48 32a8.001 8.001 0 0 0 8.88 13.312l48-32a8 8 0 0 0 2.217-11.094zM479.548 158.331a8 8 0 0 0-9.084-6.056h-.064l-40 8a8 8 0 0 0 1.6 15.84 7.68 7.68 0 0 0 1.6-.16l40-8a8 8 0 0 0 5.948-9.624zM473.6 280.275l-40-8a8 8 0 1 0-3.136 15.68l40 8c.505.105 1.02.159 1.536.16a8 8 0 0 0 1.6-15.84zM475.576 368.955l-48-24a8.004 8.004 0 0 0-7.152 14.32l48 24a8.004 8.004 0 0 0 7.152-14.32zM85.459 74.459a8 8 0 0 0-11.115 0l-72 72a8 8 0 0 0 11.312 11.312l72-72a8 8 0 0 0-.197-11.312z"/><circle cx="72" cy="144.115" r="16"/><circle cx="16" cy="88.115" r="16"/><path d="m325.656 402.395-72-72a7.998 7.998 0 0 0-5.656-2.28h-64a8 8 0 0 0-8 8l.168 63.832a7.998 7.998 0 0 0 2.336 5.6l72 72a8 8 0 0 0 11.314.006l.006-.006 63.832-63.84a8 8 0 0 0 0-11.312zm-69.488 58.24-64-64-.168-52.52h52.664l64 64-52.496 52.52zM280 48.115a8 8 0 0 0 8-8v-32a8 8 0 0 0-8-8H120a8 8 0 0 0-8 8v32c0 4.418 3.582 8 8 8a8 8 0 0 1 0 16 8 8 0 0 0-8 8v32a8 8 0 0 0 8 8h160a8 8 0 0 0 8-8v-32c0-4.418-3.582-8-8-8a8 8 0 0 1 0-16zm-8-14.632c-12.499 4.411-19.056 18.12-14.645 30.619A24.002 24.002 0 0 0 272 78.747v17.368h-40v-8h-16v8h-88V78.747c12.499-4.411 19.056-18.12 14.645-30.619A24.002 24.002 0 0 0 128 33.483V16.115h144v17.368z"/><path d="M216 24.115h16v16h-16zM216 56.115h16v16h-16z"/></svg>