<svg xmlns="http://www.w3.org/2000/svg" xml:space="preserve" width="50" height="50" style="enable-background:new 0 0 512 512" viewBox="0 0 512 512"><path fill="#dc2d3c" d="M379.853 228.907c14.329 0 25.987-11.658 25.987-25.987V25.987C405.84 11.658 394.183 0 379.853 0h-88.467C277.057 0 265.4 11.658 265.4 25.987v53.659a8.266 8.266 0 0 0-6.418 2.403 8.292 8.292 0 0 0 0 11.728l12.382 12.382H246.6V25.987C246.6 11.658 234.943 0 220.613 0h-88.467c-14.329 0-25.987 11.658-25.987 25.987V202.92c0 14.329 11.658 25.987 25.987 25.987h35.94v54.186h-35.94c-14.329 0-25.987 11.658-25.987 25.987v176.933c0 14.329 11.658 25.987 25.987 25.987h88.467c14.329 0 25.987-11.658 25.987-25.987V309.08c0-14.329-11.658-25.987-25.987-25.987h-35.94v-54.186h35.94c14.329 0 25.987-11.658 25.987-25.987v-80.173h24.763l-12.382 12.382a8.292 8.292 0 0 0 0 11.728 8.273 8.273 0 0 0 5.865 2.43c.185 0 .368-.014.553-.027v53.659c0 14.329 11.658 25.987 25.987 25.987h35.94v54.186h-35.94c-14.329 0-25.987 11.658-25.987 25.987v176.933c0 14.329 11.658 25.987 25.987 25.987h88.467c14.329 0 25.987-11.658 25.987-25.987V309.08c0-14.329-11.658-25.987-25.987-25.987h-35.94v-54.186h35.94zm-159.24 70.773c5.183 0 9.4 4.216 9.4 9.4v176.933c0 5.183-4.217 9.4-9.4 9.4h-88.467c-5.183 0-9.4-4.217-9.4-9.4V309.08c0-5.183 4.216-9.4 9.4-9.4h35.94v33.609l-12.381-12.382a8.295 8.295 0 0 0-11.73 11.728l26.54 26.54.033.03c.184.181.375.355.575.52.093.076.191.143.286.215.122.091.24.185.367.27.113.075.23.141.346.21.116.07.23.143.349.207.118.063.241.117.363.175.124.059.245.121.373.172.118.049.24.088.361.132.135.049.268.1.405.142.122.036.244.063.367.094.139.035.278.074.419.103.143.029.286.045.43.065.124.018.247.041.372.054a8.282 8.282 0 0 0 1.636 0c.126-.012.248-.035.372-.054.144-.021.288-.038.43-.065.143-.029.28-.068.419-.103.123-.031.245-.057.367-.094.138-.042.271-.093.406-.142.12-.043.241-.083.359-.132.127-.053.25-.115.374-.174.121-.057.243-.111.362-.174.119-.064.233-.137.349-.207.116-.07.233-.135.346-.21.126-.084.246-.178.367-.27.095-.072.193-.138.286-.214.2-.164.391-.337.575-.52l.033-.03 26.54-26.54a8.295 8.295 0 0 0-11.73-11.728l-12.381 12.382V299.68h35.942zM176.38 123.853c-5.183 0-9.4-4.217-9.4-9.4s4.217-9.4 9.4-9.4 9.4 4.216 9.4 9.4-4.217 9.4-9.4 9.4zm53.633 79.067c0 5.183-4.217 9.4-9.4 9.4h-35.94v-73.244a26.104 26.104 0 0 0 16.329-16.329h29.01v80.173zm0-96.76h-29.01c-3.47-10.273-13.193-17.693-24.622-17.693-14.329 0-25.987 11.658-25.987 25.987 0 11.43 7.42 21.152 17.693 24.622v73.244h-35.94c-5.183 0-9.4-4.217-9.4-9.4V25.987c0-5.183 4.216-9.4 9.4-9.4h88.467c5.183 0 9.4 4.217 9.4 9.4v80.173zm61.374 106.16c-5.183 0-9.4-4.217-9.4-9.4v-67.337l15.265-15.265a8.292 8.292 0 0 0 0-11.728l-15.265-15.265V25.987c0-5.183 4.216-9.4 9.4-9.4h88.467c5.183 0 9.4 4.217 9.4 9.4V202.92c0 5.183-4.216 9.4-9.4 9.4h-35.94v-73.244c10.273-3.47 17.693-13.193 17.693-24.622 0-14.329-11.658-25.987-25.987-25.987-14.329 0-25.987 11.658-25.987 25.987 0 11.43 7.42 21.152 17.693 24.622v73.244h-35.939zm88.466 87.36c5.183 0 9.4 4.216 9.4 9.4v176.933c0 5.183-4.216 9.4-9.4 9.4h-88.467c-5.183 0-9.4-4.217-9.4-9.4V309.08c0-5.183 4.216-9.4 9.4-9.4h35.94v33.609l-12.381-12.382a8.293 8.293 0 0 0-11.729 0 8.292 8.292 0 0 0 0 11.728l26.54 26.54.033.03c.184.181.375.355.575.52.093.076.191.143.286.215.122.091.24.185.367.27.113.075.23.141.346.21.116.07.23.143.349.207.118.063.241.117.363.175.124.059.245.121.373.172.118.049.24.088.361.132.135.049.268.1.405.142.122.036.244.063.367.094.139.035.278.074.419.103.143.029.286.045.43.065.124.018.247.041.372.054a8.282 8.282 0 0 0 1.636 0c.126-.012.248-.035.372-.054.144-.021.288-.038.43-.065.143-.029.28-.068.419-.103.123-.031.245-.057.367-.094.138-.042.271-.093.406-.142.121-.043.241-.083.359-.132.127-.053.25-.115.374-.174.121-.057.243-.111.362-.174.119-.064.233-.137.349-.207.116-.07.233-.135.346-.21.126-.084.245-.178.367-.27.095-.072.193-.138.286-.214.2-.164.391-.337.575-.52l.033-.03 26.54-26.54a8.295 8.295 0 0 0-11.73-11.728l-12.381 12.382V299.68h35.941zM335.62 123.853c-5.183 0-9.4-4.217-9.4-9.4s4.217-9.4 9.4-9.4 9.4 4.216 9.4 9.4-4.217 9.4-9.4 9.4z"/><path fill="#dc2d3c" d="M335.62 371.559c-14.329 0-25.987 11.658-25.987 25.987 0 14.329 11.658 25.987 25.987 25.987 14.329 0 25.987-11.658 25.987-25.987 0-14.329-11.658-25.987-25.987-25.987zm0 35.387c-5.183 0-9.4-4.216-9.4-9.4s4.217-9.4 9.4-9.4 9.4 4.217 9.4 9.4-4.217 9.4-9.4 9.4zM176.38 371.559c-14.329 0-25.987 11.658-25.987 25.987 0 14.329 11.658 25.987 25.987 25.987s25.987-11.658 25.987-25.987c0-14.329-11.657-25.987-25.987-25.987zm0 35.387c-5.183 0-9.4-4.216-9.4-9.4s4.217-9.4 9.4-9.4 9.4 4.217 9.4 9.4-4.217 9.4-9.4 9.4z"/></svg>