<svg xmlns="http://www.w3.org/2000/svg" xml:space="preserve" width="50" height="50" fill="#dc2e3d" viewBox="0 0 496 496"><path d="M488 56H8a8 8 0 0 0-8 8v320a8 8 0 0 0 8 8h169.06l-23.712 35.56a8 8 0 0 0 6.656 12.44h160a8 8 0 0 0 6.656-12.44L302.948 392h185.06a8 8 0 0 0 8-8V64a8 8 0 0 0-8-8zM305.06 424H174.95l21.336-32h87.44l21.336 32zM480 376H16v-32h464v32zm0-48H16V72h464v256z"/><path d="M264 104H56a8 8 0 0 0-7.512 10.736l32 88A8 8 0 0 0 88 208h120v16H64a8 8 0 0 0 0 16h11.056c-13.362 11.567-14.817 31.776-3.25 45.138s31.776 14.817 45.138 3.25 14.817-31.776 3.25-45.138a31.96 31.96 0 0 0-3.25-3.25h62.112c-13.361 11.568-14.814 31.777-3.246 45.138s31.777 14.814 45.138 3.246 14.814-31.777 3.246-45.138a32.042 32.042 0 0 0-4.49-4.27A7.913 7.913 0 0 0 224 232V120h32v24a8 8 0 0 0 16 0v-32a8 8 0 0 0-8-8zM96 280c-8.837 0-16-7.163-16-16s7.163-16 16-16 16 7.163 16 16-7.163 16-16 16zm-2.4-88-26.176-72h140.58v16h-104a8 8 0 0 0 0 16h104v40h-114.4zM200 280c-8.837 0-16-7.163-16-16s7.163-16 16-16 16 7.163 16 16-7.163 16-16 16zM440 96H328a8 8 0 0 0-8 8v48a8 8 0 0 0 8 8h112a8 8 0 0 0 8-8v-48a8 8 0 0 0-8-8zm-8 48h-96v-32h96v32zM272 256h16v16h-16zM304 256h48v16h-48zM272 224h80v16h-80zM272 192h16v16h-16zM304 192h48v16h-48zM440 240h-40v-16h40a8 8 0 0 0 0-16h-16v-8a8 8 0 0 0-16 0v8h-16a8 8 0 0 0-8 8v32a8 8 0 0 0 8 8h40v16h-40a8 8 0 0 0 0 16h16v8a8 8 0 0 0 16 0v-8h16a8 8 0 0 0 8-8v-32a8 8 0 0 0-8-8z"/></svg>