<svg xmlns="http://www.w3.org/2000/svg" xml:space="preserve" width="50" height="50" fill="#0caec1" style="enable-background:new 0 0 512 512" viewBox="0 0 512 512"><path d="M113.057 41.398c-.001 4.669-.982 7.974-2.918 9.821-4.088 3.9-26.873 2.828-29.196 2.828v16.168h21.996v17.723c0 7.974-6.488 14.462-14.462 14.462h-.18c-7.973 0-14.461-6.488-14.461-14.462V71.253H57.667v16.685c0 16.89 13.741 30.631 30.631 30.631h.18c16.89 0 30.631-13.741 30.631-30.63V64.751a23.655 23.655 0 0 0 2.194-1.836c5.258-5.015 7.924-12.256 7.924-21.518h-16.17z"/><path d="M88.926 0C39.892 0 0 39.893 0 88.926s39.892 88.926 88.926 88.926 88.926-39.893 88.926-88.926S137.961 0 88.926 0zm54.818 136.687-24.024-22.022-10.926 11.918 22.999 21.083c-12.031 8.804-26.848 14.019-42.867 14.019s-30.835-5.215-42.867-14.019l22.999-21.083-10.926-11.918-24.024 22.022c-11.158-12.791-17.94-29.493-17.94-47.76 0-40.119 32.639-72.758 72.758-72.758s72.758 32.639 72.758 72.758c0 18.266-6.782 34.968-17.94 47.76zM447.203 375.546c0 4.668-.981 7.973-2.917 9.82-4.088 3.9-26.873 2.828-29.196 2.828v16.337h21.996v17.556c0 7.974-6.488 14.462-14.462 14.462h-.18c-7.974 0-14.462-6.488-14.462-14.462v-16.685h-16.168v16.685c0 16.89 13.741 30.631 30.631 30.631h.18c16.89 0 30.631-13.741 30.631-30.631V398.9a23.513 23.513 0 0 0 2.193-1.836c5.258-5.015 7.924-12.256 7.924-21.518h-16.17z"/><path d="M423.074 334.147c-49.034 0-88.926 39.893-88.926 88.926s39.892 88.926 88.926 88.926S512 472.107 512 423.074c0-49.034-39.892-88.927-88.926-88.927zm54.817 136.687-24.024-22.022-10.925 11.918 22.999 21.083c-12.031 8.804-26.848 14.019-42.867 14.019s-30.835-5.215-42.867-14.019l22.999-21.083-10.926-11.918-24.024 22.022c-11.158-12.791-17.94-29.493-17.94-47.76 0-40.119 32.639-72.758 72.758-72.758 40.119 0 72.758 32.639 72.758 72.758 0 18.267-6.783 34.969-17.941 47.76zM162.025 177.63l11.09-11.765 11.765 11.09-11.09 11.765zM201.742 215.056l11.09-11.765 11.765 11.09-11.09 11.765zM246.006 256.776l11.09-11.765 11.765 11.09-11.09 11.765zM334.52 340.232l11.09-11.766 11.766 11.09-11.09 11.766zM291.338 299.55l11.09-11.762 11.764 11.09-11.091 11.763zM318.251 453.981c-20.089 6.312-41.032 9.513-62.251 9.513-17.675 0-34.84-2.227-51.232-6.406-12.188-16.892-22.546-39.048-30.611-64.735h135.738v-16.168H169.518c-8.847-33.644-14.022-72.143-14.639-112.101h70.733v-16.168h-70.736c.285-18.853 1.563-37.517 3.813-55.591l-16.044-1.996c-2.331 18.731-3.651 38.066-3.937 57.588H48.662a207.04 207.04 0 0 1 9.357-54.165l-15.425-4.848C35.788 210.561 32.337 233.136 32.337 256c0 123.328 100.335 223.663 223.663 223.663 22.863 0 45.439-3.45 67.099-10.257l-4.848-15.425zM86.947 376.185c-22.731-31.881-36.665-70.437-38.27-112.101h90.028c.577 40.091 5.449 78.287 13.95 112.101H86.947zm12.785 16.169h57.358c6.383 21.333 14.31 40.562 23.587 56.986-31.41-12.28-59.116-32.001-80.945-56.986zM256 32.337c-22.863 0-45.439 3.45-67.097 10.255l4.846 15.426c20.089-6.312 41.032-9.512 62.251-9.512 17.675 0 34.84 2.227 51.232 6.406 12.188 16.892 22.546 39.048 30.611 64.735H202.105v16.168h140.376c8.847 33.644 14.022 72.143 14.639 112.101h-68.784v16.168h68.787c-.285 18.841-1.565 37.503-3.817 55.589l16.044 1.998c2.334-18.744 3.655-38.079 3.942-57.588h90.046c-.708 18.463-3.842 36.648-9.344 54.167l15.426 4.844c6.796-21.639 10.242-44.213 10.242-67.096C479.663 132.672 379.328 32.337 256 32.337zm98.91 87.309c-6.382-21.333-14.309-40.562-23.586-56.986 31.41 12.279 59.116 32 80.945 56.986H354.91zm18.385 128.27c-.578-40.091-5.45-78.287-13.951-112.101h65.71c22.731 31.881 36.665 70.437 38.27 112.101h-90.029z"/></svg>