<svg xmlns="http://www.w3.org/2000/svg" xml:space="preserve" width="50" height="50" style="enable-background:new 0 0 512 512" viewBox="0 0 512 512"><path fill="#1094f1" d="M360 104h-80a8 8 0 0 0-8 8v80a8 8 0 0 0 8 8h80a8 8 0 0 0 8-8v-80a8 8 0 0 0-8-8zm-72 80v-52.693L340.693 184H288zm64-11.32L299.32 120H352v52.68zM360 216h-80a8 8 0 0 0-8 8v80a8 8 0 0 0 8 8h80a8 8 0 0 0 8-8v-80a8 8 0 0 0-8-8zm-72 80v-52.685L340.685 296H288zm64-11.312L299.312 232H352v52.688zM272 328h64v16h-64zM352 328h16v16h-16zM272 360h96v16h-96zM272 392h96v16h-96zM136 184h80v16h-80zM136 248h80v16h-80zM136 312h80v16h-80z"/><path fill="#1094f1" d="M464 56a8 8 0 0 0-8 8v32h-48V16c0-8.837-7.163-16-16-16H120c-8.837 0-16 7.163-16 16v80H56V64a8 8 0 0 0-8-8c-.48 0-48 .728-48 64v312c0 30.504 30.4 44.632 46.4 47.84a7.412 7.412 0 0 0 1.6.16h56v16c0 8.837 7.163 16 16 16h272c8.837 0 16-7.163 16-16v-16h56a7.412 7.412 0 0 0 1.6-.16c16-3.208 46.4-17.336 46.4-47.84V120c0-63.272-47.52-64-48-64zM16 120c0-32.64 14.4-43.088 24-46.4v312.232a70.235 70.235 0 0 0-24 13V120zm88 344H48.88C44.104 462.856 16 455.128 16 432c0-24.96 32.248-31.88 33.6-32.16A8 8 0 0 0 56 392V112h48v352zm16-376h92.12L120 145.543V88zm112 6.447V152h-92.136L232 94.447zM120 168h112v48H120v-48zm0 64h112v48H120v-48zm0 64h112v48H120v-48zm0 64h94.186L120 424.724V360zm112 7.172V432h-94.337L232 367.172zM392 496H120v-48h272v48zm0-64H248V88h144v344zm0-360H120V16h272v56zm71.136 392H408V112h48v280a8 8 0 0 0 6.4 7.84c.368.072 33.6 7.008 33.6 32.16 0 23.256-27.928 30.84-32.864 32zM496 398.832a70.235 70.235 0 0 0-24-13V73.6c9.496 3.32 24 13.776 24 46.4v278.832z"/><path fill="#1094f1" d="M200 40h64v16h-64zM280 40h16v16h-16zM312 40h16v16h-16z"/></svg>